<svg clip-rule="evenodd" fill-rule="evenodd" height="300" image-rendering="optimizeQuality" shape-rendering="geometricPrecision" text-rendering="geometricPrecision" viewBox="0 0 512 512" width="300" xmlns="http://www.w3.org/2000/svg" version="1.1" xmlns:xlink="http://www.w3.org/1999/xlink" xmlns:svgjs="http://svgjs.dev/svgjs"><g width="100%" height="100%" transform="matrix(1,0,0,1,0,0)"><g id="Layer_x0020_1"><g id="_461613176"><g><path d="m465 404h-418c-24 0-43-18-43-42v-273c0-24 19-42 43-42h22c3 0 5 2 5 5s-2 5-5 5h-22c-18 0-33 14-33 32v273c0 18 15 32 33 32h418c18 0 33-14 33-32v-273c0-18-15-32-33-32h-22c-3 0-5-2-5-5s2-5 5-5h22c24 0 43 18 43 42v273c0 24-19 42-43 42z" fill="#828282" fill-opacity="1" data-original-color="#000000ff" stroke="none" stroke-opacity="1"/></g><g><path d="m503 346h-494c-3 0-5-2-5-5s2-5 5-5h494c3 0 5 2 5 5s-2 5-5 5z" fill="#828282" fill-opacity="1" data-original-color="#000000ff" stroke="none" stroke-opacity="1"/></g><g><path d="m335 475c-2 0-4-1-5-3l-26-71c-1-3 1-6 3-7 3-1 6 1 7 3l26 71c1 3-1 6-3 7-1 0-1 0-2 0zm-158 0c-1 0-1 0-2 0-2-1-4-4-3-7l26-71c1-2 4-4 7-3 2 1 4 4 3 7l-26 71c-1 2-3 3-5 3zm118 0c-2 0-4-1-5-4l-9-30h-50l-9 30c-1 3-4 5-6 4-3-1-4-4-4-6l10-34c1-2 3-4 5-4h58c2 0 4 2 5 4l10 34c1 2-1 5-4 6z" fill="#828282" fill-opacity="1" data-original-color="#000000ff" stroke="none" stroke-opacity="1"/></g><g><path d="m371 512h-230c-3 0-5-2-5-5v-18c0-13 11-24 24-24h192c13 0 24 11 24 24v18c0 3-2 5-5 5zm-225-10h220v-13c0-9-7-14-14-14h-192c-7 0-14 5-14 14z" fill="#828282" fill-opacity="1" data-original-color="#000000ff" stroke="none" stroke-opacity="1"/></g><g><path d="m463 375h-29c-3 0-5-2-5-5s2-5 5-5h29c3 0 5 2 5 5s-2 5-5 5z" fill="#828282" fill-opacity="1" data-original-color="#000000ff" stroke="none" stroke-opacity="1"/></g><g><path d="m404 404c-3 0-5-2-5-5v-58c0-3 2-5 5-5s5 2 5 5v58c0 3-2 5-5 5z" fill="#828282" fill-opacity="1" data-original-color="#000000ff" stroke="none" stroke-opacity="1"/></g><g><path d="m108 404c-3 0-5-2-5-5v-58c0-3 2-5 5-5s5 2 5 5v58c0 3-2 5-5 5z" fill="#828282" fill-opacity="1" data-original-color="#000000ff" stroke="none" stroke-opacity="1"/></g><g><path d="m443 346h-374c-3 0-5-2-5-5v-302c0-21 18-39 39-39h306c21 0 39 18 39 39v302c0 3-2 5-5 5zm-369-10h364v-297c0-16-13-29-29-29h-306c-16 0-29 13-29 29z" fill="#828282" fill-opacity="1" data-original-color="#000000ff" stroke="none" stroke-opacity="1"/></g><g><path d="m443 76h-374c-3 0-5-2-5-5s2-5 5-5h374c3 0 5 2 5 5s-2 5-5 5z" fill="#828282" fill-opacity="1" data-original-color="#000000ff" stroke="none" stroke-opacity="1"/></g><g><path d="m243 76c-1 0-3 0-4-1l-67-66c-2-2-2-5-1-7 2-2 5-2 7-1l68 66c2 2 2 6 1 8-1 1-3 1-4 1z" fill="#828282" fill-opacity="1" data-original-color="#000000ff" stroke="none" stroke-opacity="1"/></g><g><path d="m103 46h-12c-3 0-5-2-5-5s2-5 5-5h12c3 0 5 2 5 5s-2 5-5 5z" fill="#828282" fill-opacity="1" data-original-color="#000000ff" stroke="none" stroke-opacity="1"/></g><g><path d="m136 46h-11c-3 0-5-2-5-5s2-5 5-5h11c3 0 5 2 5 5s-2 5-5 5z" fill="#828282" fill-opacity="1" data-original-color="#000000ff" stroke="none" stroke-opacity="1"/></g><g><path d="m170 46h-12c-3 0-5-2-5-5s2-5 5-5h12c3 0 5 2 5 5s-2 5-5 5z" fill="#828282" fill-opacity="1" data-original-color="#000000ff" stroke="none" stroke-opacity="1"/></g><g><path d="m404 46h-77c-3 0-5-2-5-5s2-5 5-5h77c3 0 5 2 5 5s-2 5-5 5zm-103 0h-28c-3 0-5-2-5-5s2-5 5-5h28c3 0 5 2 5 5s-2 5-5 5z" fill="#828282" fill-opacity="1" data-original-color="#000000ff" stroke="none" stroke-opacity="1"/></g><g><path d="m421 189h-330c-3 0-5-2-5-5v-91c0-3 2-5 5-5h330c3 0 5 2 5 5v91c0 3-2 5-5 5zm-325-10h320v-81h-320z" fill="#828282" fill-opacity="1" data-original-color="#000000ff" stroke="none" stroke-opacity="1"/></g><g><path d="m256 311h-165c-3 0-5-2-5-5v-91c0-3 2-5 5-5h165c3 0 5 2 5 5v91c0 3-2 5-5 5zm-160-10h155v-81h-155z" fill="#828282" fill-opacity="1" data-original-color="#000000ff" stroke="none" stroke-opacity="1"/></g><g><path d="m421 189h-1l-330-91c-3-1-4-4-4-6 1-3 4-4 6-4l330 91c3 1 4 4 4 6-1 3-3 4-5 4z" fill="#828282" fill-opacity="1" data-original-color="#000000ff" stroke="none" stroke-opacity="1"/></g><g><path d="m91 189c-2 0-4-1-5-4-1-2 1-5 4-6l330-91c2 0 5 1 6 4 0 2-1 5-4 6l-330 91z" fill="#828282" fill-opacity="1" data-original-color="#000000ff" stroke="none" stroke-opacity="1"/></g><g><path d="m346 238h-59c-3 0-5-2-5-5s2-5 5-5h59c3 0 5 2 5 5s-2 5-5 5z" fill="#828282" fill-opacity="1" data-original-color="#000000ff" stroke="none" stroke-opacity="1"/></g><g><path d="m410 293h-123c-3 0-5-2-5-5s2-5 5-5h123c3 0 5 2 5 5s-2 5-5 5z" fill="#828282" fill-opacity="1" data-original-color="#000000ff" stroke="none" stroke-opacity="1"/></g></g></g></g></svg>