<svg id="Layer_1" enable-background="new 0 0 512 512" viewBox="0 0 512 512" xmlns="http://www.w3.org/2000/svg" width="300" height="300" version="1.1" xmlns:xlink="http://www.w3.org/1999/xlink" xmlns:svgjs="http://svgjs.dev/svgjs"><g width="100%" height="100%" transform="matrix(1,0,0,1,0,0)"><path d="m473.48 324.11c-14.19 45.32-43.06 86-81.3 114.55-39.57 29.54-86.66 45.15-136.17 45.15-118.54 0-216.57-90.44-226.91-207.47l-15.06 17.32c-1.58 1.82-3.8 2.75-6.04 2.75-1.86 0-3.73-.65-5.24-1.96-3.33-2.9-3.68-7.95-.79-11.28l28.18-32.4c2.9-3.33 7.94-3.68 11.27-.79l32.43 28.15c3.33 2.89 3.69 7.94.8 11.28-2.9 3.33-7.94 3.69-11.28.8l-18.41-15.98c9.28 109.15 100.59 193.6 211.04 193.6 93.15 0 174.42-59.67 202.22-148.48 1.32-4.21 5.8-6.56 10.02-5.24 4.21 1.3 6.56 5.79 5.24 10zm-335.9-122.75c.5-1.1.48-2.08-.09-3.23l-10.61-20.8c-3.88-7.62-2.42-16.79 3.62-22.83l24.01-24.01c6.05-6.05 15.23-7.49 22.85-3.59l20.81 10.59c1.12.57 2.09.59 3.23.07 3.24-1.49 6.44-2.82 9.52-3.94 1.13-.42 1.81-1.12 2.19-2.28l7.23-22.27c2.65-8.12 10.15-13.57 18.69-13.57h33.96c8.55 0 16.07 5.45 18.71 13.57l7.23 22.26c.39 1.2 1.04 1.88 2.2 2.3.01 0 .01 0 .02.01 3.08 1.13 6.27 2.46 9.46 3.93 1.15.54 2.11.52 3.19-.04l20.88-10.62c7.7-3.94 16.67-2.54 22.83 3.58l24.01 24.03c6.08 6.03 7.54 15.23 3.6 22.86l-10.58 20.8c-.58 1.13-.6 2.08-.08 3.2 1.59 3.48 2.87 6.58 3.95 9.54.42 1.15 1.1 1.81 2.29 2.19l22.24 7.23c8.13 2.63 13.6 10.15 13.6 18.71v33.93c0 8.56-5.47 16.08-13.61 18.72l-22.21 7.22c-1.18.38-1.89 1.06-2.31 2.22-1.07 2.93-2.35 6.03-3.91 9.45-.55 1.19-.54 2.12.04 3.24l10.61 20.86c3.9 7.62 2.44 16.81-3.65 22.85l-23.96 23.98c-6.17 6.12-15.13 7.54-22.84 3.64l-20.86-10.64c-1.11-.56-2.06-.59-3.17-.07-3.32 1.51-6.5 2.83-9.52 3.94-1.17.43-1.83 1.11-2.21 2.29l-7.23 22.27c-2.64 8.12-10.16 13.58-18.71 13.58h-33.96c-8.53 0-16.04-5.45-18.68-13.57l-7.23-22.26c-.38-1.18-1.06-1.88-2.22-2.31-3.04-1.11-6.24-2.43-9.48-3.92-1.16-.54-2.09-.51-3.26.07l-20.8 10.61c-7.64 3.87-16.81 2.41-22.83-3.62l-24.01-24.01c-6.03-6.03-7.49-15.2-3.63-22.81l10.64-20.86c.55-1.09.57-2.07.06-3.23-1.35-2.87-2.64-5.96-3.94-9.45-.44-1.19-1.15-1.88-2.31-2.25l-22.24-7.23c-8.13-2.63-13.6-10.15-13.6-18.71v-33.93c0-8.56 5.47-16.08 13.61-18.72l22.21-7.23c1.2-.39 1.88-1.04 2.31-2.2 1.25-3.44 2.54-6.54 3.94-9.54zm14.51 6.7c-1.25 2.67-2.38 5.4-3.5 8.37-2.1 5.74-6.5 9.97-12.38 11.87l-22.21 7.22c-1.6.52-2.56 1.83-2.56 3.51v33.93c0 1.68.95 2.99 2.54 3.51l22.24 7.23c5.84 1.88 10.24 6.11 12.37 11.89 1.15 3.06 2.28 5.78 3.45 8.26.02.03.03.07.05.1 2.53 5.58 2.41 11.65-.34 17.11l-10.65 20.87c-.75 1.48-.5 3.08.69 4.26l24.01 24.01c1.18 1.18 2.79 1.43 4.29.67l20.81-10.62c2.88-1.45 5.92-2.18 8.95-2.18 2.79 0 5.58.62 8.24 1.85 2.83 1.3 5.62 2.46 8.28 3.43 5.81 2.14 10.04 6.54 11.93 12.4l7.22 22.24c.51 1.58 1.82 2.53 3.48 2.53h33.96c1.68 0 2.99-.95 3.51-2.53l7.23-22.25c1.89-5.86 6.12-10.26 11.92-12.38 2.62-.97 5.43-2.13 8.33-3.45 5.51-2.57 11.61-2.46 17.12.35l20.84 10.63c1.49.75 3.11.49 4.32-.71l23.96-23.99c1.22-1.21 1.46-2.75.7-4.26l-10.61-20.85c-2.8-5.46-2.92-11.57-.33-17.18 1.37-3 2.5-5.73 3.43-8.28 2.14-5.81 6.54-10.04 12.4-11.93l22.21-7.22c1.63-.53 2.56-1.81 2.56-3.51v-33.93c0-1.71-.93-2.98-2.55-3.51l-22.23-7.23c-5.86-1.89-10.26-6.12-12.38-11.91-.94-2.57-2.06-5.29-3.45-8.33-2.58-5.54-2.47-11.66.36-17.17l10.59-20.81c.77-1.5.52-3.08-.66-4.25l-24.01-24.03c-1.18-1.17-2.79-1.43-4.28-.66l-20.85 10.61c-5.43 2.81-11.55 2.93-17.18.33-2.8-1.29-5.59-2.45-8.28-3.44-5.79-2.12-10.01-6.52-11.91-12.39l-7.23-22.24c-.51-1.58-1.83-2.53-3.51-2.53h-33.96c-1.67 0-2.97.95-3.48 2.53l-7.23 22.25c-1.88 5.84-6.11 10.24-11.89 12.37-2.7.98-5.49 2.14-8.32 3.45-5.58 2.58-11.68 2.46-17.17-.33l-20.84-10.6c-1.51-.77-3.09-.52-4.27.65l-24.02 24.01c-1.19 1.19-1.44 2.78-.68 4.27l10.63 20.83c2.78 5.51 2.89 11.59.34 17.16zm357.16 9.49c-3.33-2.9-8.38-2.54-11.28.79l-15.04 17.31c-4.85-54.81-29.18-105.62-69.19-144.02-42.62-40.91-98.64-63.44-157.74-63.44-49.51 0-96.59 15.61-136.16 45.15-38.25 28.56-67.12 69.24-81.29 114.55-1.32 4.21 1.03 8.7 5.24 10.02s8.7-1.03 10.01-5.24c27.78-88.82 109.04-148.49 202.2-148.49 110.76 0 201.82 84.35 211.06 193.62l-18.39-15.99c-3.33-2.9-8.38-2.54-11.28.79s-2.54 8.38.79 11.28l32.4 28.18c1.46 1.27 3.32 1.96 5.25 1.96.19 0 .37-.01.56-.02 2.12-.15 4.09-1.13 5.48-2.73l28.18-32.43c2.88-3.34 2.53-8.39-.8-11.29zm-328.65 49.79c-.65-4.37-4.71-7.38-9.08-6.73s-7.38 4.72-6.73 9.08c3.22 21.64 14.13 41.51 30.73 55.94 16.76 14.57 38.25 22.6 60.48 22.6 50.86 0 92.24-41.37 92.24-92.21 0-50.86-41.38-92.24-92.24-92.24-22.24 0-43.72 8.03-60.49 22.61-16.6 14.43-27.51 34.3-30.73 55.95-.65 4.37 2.36 8.43 6.73 9.08s8.43-2.36 9.08-6.73c5.51-37.01 37.92-64.93 75.4-64.93 42.04 0 76.25 34.21 76.25 76.25 0 42.03-34.21 76.22-76.25 76.22-37.47.01-69.89-27.89-75.39-64.89zm49.48 34.95c-5.93-3.48-9.43-9.58-9.43-16.34v-59.9c0-6.8 3.52-12.9 9.41-16.3 5.91-3.44 12.98-3.44 18.91.01l51.82 29.92c5.89 3.38 9.41 9.49 9.41 16.33 0 6.82-3.52 12.92-9.41 16.31l-51.84 29.96c-2.96 1.7-6.21 2.55-9.45 2.55s-6.47-.85-9.42-2.54zm6.56-16.34c0 1.11.48 1.94 1.47 2.52.93.54 1.86.54 2.86-.04l51.82-29.95c.01 0 .01-.01.02-.01.95-.55 1.4-1.33 1.4-2.45 0-1.14-.44-1.93-1.4-2.48l-51.86-29.94c-.5-.29-.98-.44-1.45-.44s-.93.14-1.42.42c-.98.57-1.44 1.37-1.44 2.47z" fill="#828282" fill-opacity="1" data-original-color="#000000ff" stroke="none" stroke-opacity="1"/></g></svg>