<svg height="300" viewBox="0 0 64 64" width="300" xmlns="http://www.w3.org/2000/svg" version="1.1" xmlns:xlink="http://www.w3.org/1999/xlink" xmlns:svgjs="http://svgjs.dev/svgjs"><g width="100%" height="100%" transform="matrix(1,0,0,1,0,0)"><g id="coding-2" data-name="coding"><path d="m59 2h-34a3.009 3.009 0 0 0 -3 3v23h-15a3.009 3.009 0 0 0 -3 3v25h-.88a1 1 0 0 0 -.77.37.989.989 0 0 0 -.2.84l.87 4a1 1 0 0 0 .98.79h48a1 1 0 0 0 .98-.79l.87-4a.989.989 0 0 0 -.2-.84 1 1 0 0 0 -.77-.37h-.88v-18h7a3.009 3.009 0 0 0 3-3v-30a3.009 3.009 0 0 0 -3-3zm-53 29a1 1 0 0 1 1-1h15v5a3.009 3.009 0 0 0 3 3h25v18h-19a1 1 0 0 0 -1 1h-4a1 1 0 0 0 -1-1h-19zm45.2 29h-46.4l-.43-2h19.63a1 1 0 0 0 1 1h6a1 1 0 0 0 1-1h19.63zm8.8-25a1 1 0 0 1 -1 1h-34a1 1 0 0 1 -1-1v-23h36zm0-25h-36v-5a1 1 0 0 1 1-1h34a1 1 0 0 1 1 1z" fill="#ffffff" fill-opacity="1" data-original-color="#000000ff" stroke="none" stroke-opacity="1"/><path d="m56 6h2v2h-2z" fill="#ffffff" fill-opacity="1" data-original-color="#000000ff" stroke="none" stroke-opacity="1"/><path d="m52 6h2v2h-2z" fill="#ffffff" fill-opacity="1" data-original-color="#000000ff" stroke="none" stroke-opacity="1"/><path d="m48 6h2v2h-2z" fill="#ffffff" fill-opacity="1" data-original-color="#000000ff" stroke="none" stroke-opacity="1"/><path d="m36.293 17.293-6 6a1 1 0 0 0 0 1.414l6 6 1.414-1.414-5.293-5.293 5.293-5.293z" fill="#ffffff" fill-opacity="1" data-original-color="#000000ff" stroke="none" stroke-opacity="1"/><path d="m47.707 17.293-1.414 1.414 5.293 5.293-5.293 5.293 1.414 1.414 6-6a1 1 0 0 0 0-1.414z" fill="#ffffff" fill-opacity="1" data-original-color="#000000ff" stroke="none" stroke-opacity="1"/><path d="m32.513 23h18.974v2h-18.974z" transform="matrix(.316 -.949 .949 .316 5.945 56.25)" fill="#ffffff" fill-opacity="1" data-original-color="#000000ff" stroke="none" stroke-opacity="1"/><path d="m17 48h9v2h-9z" fill="#ffffff" fill-opacity="1" data-original-color="#000000ff" stroke="none" stroke-opacity="1"/><path d="m8 48h7v2h-7z" fill="#ffffff" fill-opacity="1" data-original-color="#000000ff" stroke="none" stroke-opacity="1"/><path d="m8 52h14v2h-14z" fill="#ffffff" fill-opacity="1" data-original-color="#000000ff" stroke="none" stroke-opacity="1"/><path d="m38 48h10v2h-10z" fill="#ffffff" fill-opacity="1" data-original-color="#000000ff" stroke="none" stroke-opacity="1"/><path d="m28 48h8v2h-8z" fill="#ffffff" fill-opacity="1" data-original-color="#000000ff" stroke="none" stroke-opacity="1"/><path d="m24 52h24v2h-24z" fill="#ffffff" fill-opacity="1" data-original-color="#000000ff" stroke="none" stroke-opacity="1"/><path d="m8 36h12v2h-12z" fill="#ffffff" fill-opacity="1" data-original-color="#000000ff" stroke="none" stroke-opacity="1"/><path d="m8 32h12v2h-12z" fill="#ffffff" fill-opacity="1" data-original-color="#000000ff" stroke="none" stroke-opacity="1"/></g></g></svg>